<svg width="38" height="34" viewBox="0 0 38 34" fill="none" xmlns="http://www.w3.org/2000/svg">
<path id="Vector" d="M32.4265 1.68625L32.401 0.936683L32.401 0.936683L32.4265 1.68625ZM26.1415 2.49997L25.9313 1.78001L25.9313 1.78001L26.1415 2.49997ZM5.56063 4.21358L5.51576 4.96224L5.51577 4.96224L5.56063 4.21358ZM10.9856 2.48911L11.1725 1.76277L11.1725 1.76277L10.9856 2.48911ZM5.714 1.78066L5.75886 1.03201L5.75886 1.03201L5.714 1.78066ZM15.5528 7.00046L15.2091 7.66707L15.2091 7.66708L15.5528 7.00046ZM22.3006 31.6884L22.6465 32.3539L22.6465 32.3539L22.3006 31.6884ZM27.6523 29.4581L27.8392 30.1845L27.8392 30.1845L27.6523 29.4581ZM27.0143 27.1012L26.8274 26.3749L26.8274 26.3749L27.0143 27.1012ZM21.1246 29.5374L20.7788 28.8719L20.7787 28.872L21.1246 29.5374ZM32.3866 28.8289L32.4322 29.5775L32.4323 29.5775L32.3866 28.8289ZM16.8753 29.5374L17.2212 28.872L17.2212 28.8719L16.8753 29.5374ZM10.3477 29.4581L10.1608 30.1845L10.1608 30.1845L10.3477 29.4581ZM15.6993 31.6884L15.3534 32.3539L15.3534 32.3539L15.6993 31.6884ZM5.61338 28.8289L5.56773 29.5775L5.56778 29.5775L5.61338 28.8289ZM7.51093 11.8966C7.10849 11.7985 6.70274 12.0452 6.60465 12.4476C6.50656 12.85 6.75327 13.2558 7.1557 13.3539L7.51093 11.8966ZM13.8224 14.9789C14.2248 15.077 14.6306 14.8303 14.7286 14.4278C14.8267 14.0254 14.58 13.6197 14.1776 13.5216L13.8224 14.9789ZM30.8443 13.3539C31.2467 13.2558 31.4934 12.85 31.3953 12.4476C31.2972 12.0452 30.8915 11.7985 30.489 11.8966L30.8443 13.3539ZM23.8224 13.5216C23.4199 13.6197 23.1732 14.0254 23.2713 14.4278C23.3694 14.8303 23.7752 15.077 24.1776 14.9789L23.8224 13.5216ZM7.51093 18.3966C7.10849 18.2985 6.70274 18.5452 6.60465 18.9476C6.50656 19.35 6.75327 19.7558 7.1557 19.8539L7.51093 18.3966ZM13.8224 21.4789C14.2248 21.577 14.6306 21.3303 14.7286 20.9278C14.8267 20.5254 14.58 20.1197 14.1776 20.0216L13.8224 21.4789ZM30.8443 19.8539C31.2467 19.7558 31.4934 19.35 31.3953 18.9476C31.2972 18.5452 30.8915 18.2985 30.489 18.3966L30.8443 19.8539ZM23.8224 20.0216C23.4199 20.1197 23.1732 20.5254 23.2713 20.9278C23.3694 21.3303 23.7752 21.577 24.1776 21.4789L23.8224 20.0216ZM4.33331 24.2337V6.12185H2.83331V24.2337H4.33331ZM3.58331 5.37185H1.08331V6.87185H3.58331V5.37185ZM0.333313 6.12185V24.2337H1.83331V6.12185H0.333313ZM1.08331 24.9837H3.58331V23.4837H1.08331V24.9837ZM37.6666 24.2337V6.01688H36.1666V24.2337H37.6666ZM36.9166 5.26688H34.4166V6.76688H36.9166V5.26688ZM33.6666 6.01688V24.2337H35.1666V6.01688H33.6666ZM34.4166 24.9837H36.9166V23.4837H34.4166V24.9837ZM32.401 0.936683C30.4941 1.00146 27.9348 1.19525 25.9313 1.78001L26.3516 3.21993C28.1638 2.69098 30.5642 2.49994 32.4519 2.43582L32.401 0.936683ZM25.4245 2.72011L26.1415 5.05522L27.5754 4.61493L26.8584 2.27982L25.4245 2.72011ZM27.0686 5.55504C28.5548 5.12125 30.6833 4.93487 32.5389 4.87184L32.488 3.3727C30.614 3.43636 28.3261 3.62542 26.6483 4.11512L27.0686 5.55504ZM33.263 4.0955L33.176 1.65948L31.677 1.71302L31.764 4.14904L33.263 4.0955ZM25.9313 1.78001C24.1871 2.28915 22.2604 3.26997 20.795 4.09691L21.5323 5.40324C22.9749 4.58909 24.7792 3.67893 26.3516 3.21992L25.9313 1.78001ZM20.5187 5.13288L21.7709 7.24254L23.0608 6.47693L21.8086 4.36727L20.5187 5.13288ZM22.7844 7.51293C24.1909 6.71933 25.7876 5.92895 27.0686 5.55503L26.6483 4.11512C25.1953 4.53924 23.4758 5.40052 22.0473 6.20653L22.7844 7.51293ZM5.51577 4.96224C7.1158 5.05812 8.8799 5.24272 10.1608 5.57228L10.5346 4.11959C9.10816 3.7526 7.22543 3.562 5.60549 3.46492L5.51577 4.96224ZM11.0717 5.04187L11.7095 2.68505L10.2616 2.29318L9.62376 4.65L11.0717 5.04187ZM11.1725 1.76277C9.49846 1.33208 7.41363 1.13117 5.75886 1.03201L5.66913 2.52932C7.30357 2.62727 9.26999 2.82215 10.7987 3.21546L11.1725 1.76277ZM4.96548 1.73348L4.81212 4.1664L6.30914 4.26077L6.46251 1.82785L4.96548 1.73348ZM10.1608 5.57228C11.6788 5.96284 13.5904 6.83254 15.2091 7.66707L15.8964 6.33384C14.2591 5.48968 12.2237 4.55417 10.5346 4.11959L10.1608 5.57228ZM16.2121 7.35799L17.3806 5.20319L16.062 4.48812L14.8935 6.64292L16.2121 7.35799ZM17.065 4.17904C15.3964 3.31872 13.1517 2.272 11.1725 1.76277L10.7987 3.21546C12.6071 3.68074 14.7281 4.66183 16.3776 5.51227L17.065 4.17904ZM22.6465 32.3539C24.2897 31.4998 26.2722 30.5876 27.8392 30.1845L27.4655 28.7318C25.7238 29.1798 23.6149 30.16 21.9548 31.023L22.6465 32.3539ZM28.3763 29.2621L27.7383 26.9052L26.2904 27.2972L26.9284 29.6541L28.3763 29.2621ZM26.8274 26.3749C24.7897 26.8991 22.4673 27.9943 20.7788 28.8719L21.4705 30.2029C23.1416 29.3343 25.3379 28.3069 27.2012 27.8276L26.8274 26.3749ZM20.4666 29.8972L21.6426 32.0482L22.9587 31.3286L21.7827 29.1776L20.4666 29.8972ZM27.8392 30.1845C29.1052 29.8587 30.8446 29.6742 32.4322 29.5775L32.341 28.0803C30.7327 28.1783 28.8758 28.3689 27.4654 28.7318L27.8392 30.1845ZM33.1351 28.7809L32.9789 26.3481L31.482 26.4442L31.6382 28.877L33.1351 28.7809ZM32.1848 25.6475C30.5409 25.7478 28.4837 25.9488 26.8274 26.3749L27.2012 27.8276C28.7133 27.4386 30.6531 27.2437 32.2761 27.1447L32.1848 25.6475ZM17.2212 28.8719C15.5326 27.9943 13.2102 26.8991 11.1724 26.3749L10.7987 27.8276C12.6621 28.3069 14.8583 29.3343 16.5294 30.2029L17.2212 28.8719ZM10.2616 26.9053L9.62376 29.2622L11.0717 29.654L11.7095 27.2971L10.2616 26.9053ZM10.1608 30.1845C11.7278 30.5876 13.7103 31.4998 15.3534 32.3539L16.0452 31.023C14.385 30.16 12.2762 29.1798 10.5346 28.7318L10.1608 30.1845ZM16.3574 32.0482L17.5334 29.8972L16.2172 29.1776L15.0412 31.3286L16.3574 32.0482ZM11.1725 26.3749C9.5163 25.9488 7.459 25.7478 5.8151 25.6475L5.72379 27.1447C7.34682 27.2437 9.28672 27.4386 10.7987 27.8276L11.1725 26.3749ZM5.02098 26.3481L4.86492 28.7809L6.36184 28.8769L6.51791 26.4441L5.02098 26.3481ZM5.56778 29.5775C7.1554 29.6742 8.89471 29.8587 10.1608 30.1845L10.5346 28.7318C9.12412 28.3689 7.26723 28.1783 5.65898 28.0803L5.56778 29.5775ZM33.6666 24.2337C33.6666 24.9109 33.0702 25.5935 32.1848 25.6475L32.2761 27.1447C33.8688 27.0476 35.1666 25.7855 35.1666 24.2337H33.6666ZM32.4323 29.5775C35.2363 29.4065 37.6666 27.1736 37.6666 24.2337H36.1666C36.1666 26.2865 34.451 27.9516 32.341 28.0803L32.4323 29.5775ZM37.6666 6.01688C37.6666 3.23231 35.3903 0.835167 32.401 0.936683L32.4519 2.43582C34.5587 2.36427 36.1666 4.04568 36.1666 6.01688H37.6666ZM32.5389 4.87184C33.1323 4.85169 33.6666 5.32612 33.6666 6.01688H35.1666C35.1666 4.49246 33.944 3.32327 32.488 3.3727L32.5389 4.87184ZM0.333313 24.2337C0.333313 27.1736 2.76362 29.4065 5.56773 29.5775L5.65903 28.0803C3.54893 27.9516 1.83331 26.2865 1.83331 24.2337H0.333313ZM5.8151 25.6475C4.92982 25.5935 4.33331 24.9109 4.33331 24.2337H2.83331C2.83331 25.7855 4.13117 27.0476 5.72379 27.1447L5.8151 25.6475ZM20.7787 28.872C19.6751 29.4456 18.3249 29.4456 17.2212 28.872L16.5294 30.2029C18.0667 31.002 19.9332 31.002 21.4706 30.2029L20.7787 28.872ZM15.3534 32.3539C17.6258 33.5349 20.3742 33.5349 22.6465 32.3539L21.9548 31.0229C20.1161 31.9785 17.8839 31.9785 16.0452 31.0229L15.3534 32.3539ZM20.7951 4.09689C19.6487 4.74377 18.219 4.77392 17.065 4.17902L16.3777 5.51229C17.9866 6.34173 19.9516 6.29513 21.5322 5.40326L20.7951 4.09689ZM15.2091 7.66708C17.5905 8.89479 20.47 8.81892 22.7844 7.51291L22.0472 6.20655C20.1667 7.26774 17.8225 7.32681 15.8964 6.33383L15.2091 7.66708ZM4.33331 6.12185C4.33331 5.41616 4.89486 4.92502 5.51576 4.96224L5.6055 3.46492C4.1132 3.37548 2.83331 4.56171 2.83331 6.12185H4.33331ZM5.75886 1.03201C2.71644 0.849693 0.333313 3.2683 0.333313 6.12185H1.83331C1.83331 4.10316 3.51742 2.40038 5.66913 2.52932L5.75886 1.03201ZM18.25 7.51298V32.1251H19.75V7.51298H18.25ZM7.1557 13.3539L13.8224 14.9789L14.1776 13.5216L7.51093 11.8966L7.1557 13.3539ZM30.489 11.8966L23.8224 13.5216L24.1776 14.9789L30.8443 13.3539L30.489 11.8966ZM7.1557 19.8539L13.8224 21.4789L14.1776 20.0216L7.51093 18.3966L7.1557 19.8539ZM30.489 18.3966L23.8224 20.0216L24.1776 21.4789L30.8443 19.8539L30.489 18.3966Z" fill="#273B4A"/>
</svg>
