<svg width="39" height="38" viewBox="0 0 39 38" fill="none" xmlns="http://www.w3.org/2000/svg">
<path id="Vector" d="M38.9325 0.344383C38.8735 0.241336 38.7774 0.153913 38.6559 0.0927676C38.5343 0.0316218 38.3927 -0.000606729 38.2481 8.65078e-06H17.0616C16.9344 0.000174152 16.8092 0.0252646 16.6976 0.0729819C16.586 0.120699 16.4915 0.189517 16.4228 0.273134L0.133728 20.4606C0.055307 20.5485 0.00948894 20.6516 0.00132174 20.7586C-0.00684546 20.8655 0.0229551 20.9721 0.0874403 21.0667C0.151925 21.1612 0.248592 21.2401 0.366788 21.2945C0.484983 21.3489 0.62012 21.3767 0.757306 21.375H12.4228L2.12614 37.1094C2.06702 37.2029 2.03924 37.3067 2.04538 37.4109C2.05151 37.5151 2.09138 37.6164 2.16124 37.7054C2.23111 37.7943 2.3287 37.868 2.44491 37.9195C2.56111 37.971 2.69214 37.9987 2.82576 38H7.38854C7.49409 38.0005 7.59863 37.9839 7.69552 37.9512C7.7924 37.9185 7.8795 37.8704 7.95128 37.81L34.6739 15.2594C34.78 15.1749 34.8514 15.0677 34.8789 14.9514C34.9064 14.8351 34.8888 14.715 34.8284 14.6066C34.7679 14.4981 34.6673 14.4062 34.5396 14.3427C34.4118 14.2792 34.2626 14.2469 34.1112 14.25H23.8601L38.8108 0.973758C38.9072 0.889416 38.97 0.784981 38.9917 0.673212C39.0133 0.561443 38.9927 0.44718 38.9325 0.344383Z" fill="#5E7BD5"/>
</svg>
