<svg width="40" height="39" viewBox="0 0 40 39" fill="none" xmlns="http://www.w3.org/2000/svg">
<g id="&#240;&#159;&#166;&#134; icon &#34;edit&#34;">
<g id="Group">
<path id="Vector" d="M25.285 39H14.2516C4.26627 39 0 34.8405 0 25.105V14.3476C0 4.61217 4.26627 0.452637 14.2516 0.452637H17.9294C18.6833 0.452637 19.3086 1.06222 19.3086 1.79731C19.3086 2.5324 18.6833 3.14199 17.9294 3.14199H14.2516C5.77418 3.14199 2.75837 6.08235 2.75837 14.3476V25.105C2.75837 33.3703 5.77418 36.3107 14.2516 36.3107H25.285C33.7624 36.3107 36.7782 33.3703 36.7782 25.105V21.5192C36.7782 20.7841 37.4034 20.1746 38.1574 20.1746C38.9114 20.1746 39.5366 20.7841 39.5366 21.5192V25.105C39.5366 34.8405 35.2703 39 25.285 39Z" fill="#292D32"/>
<path id="Vector_2" d="M13.3308 29.9281C12.2091 29.9281 11.1793 29.5337 10.4253 28.8165C9.52426 27.938 9.13809 26.665 9.34037 25.3203L10.1311 19.9237C10.2782 18.8838 10.977 17.5391 11.731 16.804L26.2215 2.67591C29.8809 -0.891969 33.5955 -0.891969 37.2549 2.67591C39.2594 4.63017 40.1604 6.62029 39.9765 8.61041C39.811 10.224 38.9284 11.8018 37.2549 13.4154L22.7643 27.5435C22.0104 28.2786 20.6312 28.9599 19.5646 29.1034L14.0296 29.8743C13.7905 29.9281 13.5515 29.9281 13.3308 29.9281ZM28.1707 4.57638L13.6802 18.7045C13.3308 19.0452 12.9262 19.8341 12.8527 20.3002L12.062 25.6968C11.9884 26.2168 12.0987 26.6471 12.3746 26.916C12.6504 27.185 13.0918 27.2925 13.625 27.2208L19.1601 26.4499C19.6382 26.3781 20.4657 25.9837 20.7967 25.6431L35.2873 11.5149C36.4826 10.3495 37.1078 9.30965 37.1998 8.34148C37.3101 7.17609 36.6849 5.93899 35.2873 4.55846C32.3451 1.68981 30.3223 2.49662 28.1707 4.57638Z" fill="#292D32"/>
<path id="Vector_3" d="M34.2031 15.8351C34.0744 15.8351 33.9457 15.8171 33.8353 15.7813C28.999 14.4545 25.1557 10.7074 23.7949 5.99202C23.5926 5.27486 24.0155 4.53977 24.7511 4.32462C25.4867 4.1274 26.2406 4.53977 26.4429 5.25693C27.5463 9.07581 30.654 12.1058 34.5709 13.1816C35.3065 13.3788 35.7294 14.1318 35.5271 14.849C35.3616 15.4585 34.81 15.8351 34.2031 15.8351Z" fill="#292D32"/>
</g>
</g>
</svg>
